<svg width="2872" height="1036" xmlns="http://www.w3.org/2000/svg" xmlns:xlink="http://www.w3.org/1999/xlink" xml:space="preserve" overflow="hidden"><g transform="translate(-819 -720)"><path d="M1365.29 1684.3 1376.62 1612.26C1356.08 1629.48 1334.58 1645.75 1310.01 1659.93 1308.98 1660.94 1307.96 1661.96 1305.85 1662.97L1304.82 1677.21C1302.78 1694.43 1316.15 1698.48 1333.55 1699.5 1349.94 1701.52 1363.24 1700.51 1365.29 1684.3Z" fill="#FFFFFF" fill-rule="evenodd"/><path d="M1368.99 946.935 1368.99 946.935 1366.95 968.499 1368.99 968.499C1392.55 976.689 1417.08 983.855 1443.7 991.022 1448.81 992.046 1454.94 994.157 1460.05 995.181L1465.16 958.26 1465.16 958.26C1472.31 959.284 1479.47 953.141 1480.49 945.911 1481.51 937.721 1476.4 931.578 1468.23 930.554L1372.05 919.292C1363.88 918.269 1357.75 924.412 1356.73 931.578 1355.71 939.769 1361.84 945.911 1368.99 946.935Z" fill="#FFFFFF" fill-rule="evenodd"/><path d="M1044.45 931.576C1043.43 924.41 1037.3 918.267 1030.08 919.291L932.952 930.552C925.799 931.576 919.669 937.719 920.69 945.909 921.712 953.14 928.865 959.283 936.016 958.259L936.016 958.259 941.125 995.179C947.256 994.156 952.365 992.044 958.495 991.02 985.124 983.854 1009.65 976.687 1032.12 968.497L1034.17 968.497 1034.17 968.497 1032.12 946.933 1032.12 946.933C1040.36 945.909 1045.47 939.767 1044.45 931.576Z" fill="#FFFFFF" fill-rule="evenodd"/><path d="M1069.09 1700.99C1085.25 1698.95 1098.39 1694.88 1096.37 1677.57L1095.36 1662.23C1093.34 1661.21 1092.33 1661.21 1091.32 1660.19 1067.07 1644.92 1045.85 1629.58 1025.58 1612.27L1036.69 1684.7C1038.77 1700.99 1051.91 1702.01 1069.09 1700.99Z" fill="#FFFFFF" fill-rule="evenodd"/><path d="M1200.62 1755.28C1220.15 1755.28 1234.55 1751.14 1234.55 1732.52L1236.6 1697.28C1235.57 1698.31 1234.55 1698.31 1233.52 1698.31L1232.49 1699.35C1228.38 1701.42 1224.26 1702.45 1220.15 1704.52L1213.98 1706.59 1213.98 1706.59 1213.98 1706.59 1210.9 1707.62 1207.82 1708.66 1207.82 1708.66 1207.82 1708.66 1202.67 1710.73 1200.62 1710.73 1198.56 1710.73 1194.45 1708.66 1190.34 1707.62 1187.25 1706.59 1187.25 1706.59 1187.25 1706.59 1181.09 1704.52C1178 1702.45 1173.89 1701.42 1168.68 1699.35 1167.66 1698.31 1166.63 1698.31 1165.6 1697.28L1166.63 1732.52C1166.63 1751.14 1182.11 1755.28 1200.62 1755.28Z" fill="#FFFFFF" fill-rule="evenodd"/><path d="M1147.93 904.733 1147.93 904.733 1147.93 926.175C1150.99 925.157 1153.03 923.121 1156.09 922.103 1170.39 914.977 1181.68 908.869 1191.89 902.697L1191.89 901.679 1199.04 897.607 1202.1 895.572 1205.16 897.607 1212.31 902.697C1222.52 908.869 1233.75 914.977 1247.09 922.103 1250.15 923.121 1252.19 924.139 1255.25 925.157L1255.25 904.733 1255.25 904.733C1264.44 904.733 1271.59 897.607 1271.59 888.445 1271.59 880.301 1264.44 873.175 1256.28 873.175L1146.9 873.175C1138.74 873.175 1131.59 880.301 1131.59 888.445 1131.59 897.607 1138.74 904.733 1147.93 904.733Z" fill="#FFFFFF" fill-rule="evenodd"/><path d="M1052.59 1069.53 1046.6 1058.2 1045.6 1070.56 1032.57 1070.56 1044.61 1077.77 1043.61 1090.2 1051.59 1081.96 1063.57 1089.17 1056.58 1077.77 1065.57 1069.53Z" fill="#FFFFFF" fill-rule="evenodd"/><path d="M1088.57 1224.21 1081.57 1212.21 1080.57 1224.21 1068.57 1225.21 1079.57 1231.21 1078.57 1243.21 1086.57 1236.21 1098.57 1242.21 1092.57 1231.21 1100.57 1223.21Z" fill="#FFFFFF" fill-rule="evenodd"/><path d="M1087.57 1140.2 1080.57 1128.2 1079.57 1140.2 1067.57 1141.2 1078.57 1148.2 1077.57 1159.2 1086.57 1152.2 1097.57 1158.2 1091.57 1147.2 1099.57 1139.2Z" fill="#FFFFFF" fill-rule="evenodd"/><path d="M994.561 1129.24 987.561 1118.2 986.561 1130.24 974.561 1130.24 985.561 1137.22 984.56 1149.2 993.561 1141.21 1004.56 1148.2 998.561 1136.22 1006.56 1128.24Z" fill="#FFFFFF" fill-rule="evenodd"/><path d="M1129.02 1104.2 1127.99 1116.56 1114.59 1117.59 1126.96 1123.84 1125.93 1136.2 1134.17 1127.96 1146.53 1135.17 1139.32 1123.84 1148.59 1115.53 1135.2 1116.56Z" fill="#FFFFFF" fill-rule="evenodd"/><path d="M1335.27 1371.22C1333.23 1337.59 1331.2 1301.86 1347.51 1271.23 1346.49 1313.07 1367.91 1353.89 1373 1365.1 1373 1365.1 1362.81 1367.14 1357.71 1368.16L1357.71 1370.2C1350.57 1370.2 1343.43 1371.22 1336.29 1371.22ZM1449.61 1369.18C1437.31 1369.18 1418.96 1369.18 1395.5 1369.18L1394.48 1369.18C1384.28 1344.72 1373 1316.13 1373 1289.57 1373 1267.15 1378.17 1259 1377.15 1241.61 1377.15 1241.61 1380.21 1231.42 1380.21 1194.68L1380.21 1180.41C1380.21 1172.26 1380.21 1160.98 1367.91 1142.64 1366.89 1138.57 1366.89 1132.45 1367.91 1131.43 1367.91 1130.42 1368.92 1129.4 1368.92 1128.38L1368.92 1128.38 1369.94 1127.36 1370.96 1126.34C1386.32 1103.86 1378.17 1094.69 1378.17 1094.69 1371.98 1088.57 1351.59 1087.55 1346.49 1088.57 1341.39 1089.59 1342.41 1092.65 1343.43 1095.71 1342.41 1096.72 1341.39 1097.74 1341.39 1098.76 1339.35 1101.82 1338.33 1106.92 1338.33 1106.92 1338.33 1106.92 1339.35 1115.07 1332.22 1124.3L1335.27 1127.36C1335.27 1127.36 1335.27 1132.45 1338.33 1138.57 1338.33 1138.57 1342.41 1139.59 1346.49 1138.57L1346.49 1137.55C1347.51 1140.61 1348.53 1143.66 1347.51 1149.78L1347.51 1149.78C1337.31 1166.14 1329.16 1173.28 1329.16 1173.28L1317.94 1180.41 1278.11 1168.18C1278.11 1168.18 1274.03 1165.12 1268.93 1163.02 1267.91 1163.02 1266.89 1162 1265.87 1162 1258.73 1159.97 1256.69 1166.14 1256.69 1166.14 1256.69 1166.14 1253.63 1177.35 1261.79 1180.41 1268.93 1180.41 1276.07 1180.41 1276.07 1180.41 1276.07 1180.41 1302.58 1194.68 1316.92 1200.79 1328.14 1196.71 1334.25 1194.68 1334.25 1194.68 1334.25 1194.68 1335.27 1206.9 1330.18 1232.44L1330.18 1232.44C1327.12 1239.57 1318.96 1266.13 1314.88 1289.57 1311.82 1316.13 1313.86 1350.84 1312.84 1367.14 1308.76 1369.18 1301.56 1369.18 1295.44 1371.22L1295.44 1373.25C1253.63 1376.31 1207.68 1380.45 1158.67 1386.56 1159.69 1385.54 1159.69 1384.53 1159.69 1383.51 1159.69 1380.45 1157.65 1377.33 1154.59 1377.33 1150.51 1377.33 1148.47 1380.45 1148.47 1383.51 1148.47 1385.54 1148.47 1386.56 1150.51 1387.58 1087.22 1396.75 1020.88 1408.98 958.611 1427.39 961.67 1441.65 965.749 1455.92 970.912 1469.23 1004.56 1463.05 1039.3 1457.96 1077.03 1454.9L1077.03 1454.9C1137.26 1431.46 1220.94 1404.91 1321 1389.62L1321 1389.62C1346.49 1385.54 1374.02 1381.47 1401.62 1379.43L1402.64 1379.43C1417.94 1378.41 1433.23 1377.33 1448.59 1376.31Z" fill="#FFFFFF" fill-rule="evenodd"/><path d="M1059.91 1586.72C1060.92 1587.74 1062.95 1588.75 1063.97 1589.77L1063.97 1590.79C1066 1591.87 1067.02 1592.89 1068.03 1593.9 1069.05 1593.9 1070.07 1594.92 1071.08 1595.94 1071.08 1595.94 1072.1 1596.95 1073.11 1596.95 1075.14 1598.99 1077.18 1600 1079.21 1602.04 1080.22 1602.04 1081.24 1603.05 1082.25 1604.07 1086.32 1607.12 1090.38 1610.17 1094.44 1612.2 1096.47 1613.22 1097.49 1614.24 1099.52 1615.25 1109.74 1605.09 1132.09 1583.67 1163.58 1558.25 1119.9 1559.27 1078.19 1562.32 1038.58 1568.42 1040.61 1569.44 1042.64 1571.47 1043.66 1573.5 1045.69 1574.52 1046.7 1575.54 1047.72 1576.55 1051.78 1580.62 1055.85 1583.67 1059.91 1586.72Z" fill="#FFFFFF" fill-rule="evenodd"/><path d="M1446.6 1404.4 1447.62 1393.23C1410.81 1397.29 1313.77 1410.5 1214.62 1448.14 1254.5 1449.15 1293.29 1451.19 1331.13 1454.23L1331.13 1454.23C1336.23 1452.2 1342.35 1450.17 1347.46 1447.12L1348.48 1447.12C1376.1 1435.95 1405.71 1424.78 1436.33 1416.59L1436.33 1416.59C1439.39 1416.59 1442.46 1415.58 1445.58 1414.56 1445.58 1411.51 1446.6 1407.45 1446.6 1404.4Z" fill="#FFFFFF" fill-rule="evenodd"/><path d="M1201.81 1666.26C1202.83 1666.26 1203.84 1665.25 1205.88 1665.25L1205.88 1664.23C1207.91 1664.23 1208.93 1664.23 1209.95 1663.21 1215.03 1661.17 1221.13 1659.14 1226.21 1657.1 1228.25 1656.08 1229.26 1655.07 1231.3 1654.05 1232.31 1654.05 1233.33 1654.05 1234.35 1653.03 1235.36 1653.03 1236.38 1652.01 1236.38 1652.01 1238.41 1651 1240.51 1649.98 1242.54 1648.96 1256.78 1642.85 1269.99 1635.73 1283.21 1627.52 1288.29 1625.49 1292.36 1622.43 1297.45 1619.38 1298.46 1618.36 1299.48 1618.36 1300.5 1617.34 1304.56 1614.29 1308.69 1612.25 1312.76 1609.2 1314.79 1608.18 1315.81 1607.17 1316.83 1606.15 1318.86 1605.13 1320.89 1604.11 1321.91 1603.09 1325.98 1600.04 1329.03 1596.99 1333.09 1594.95 1334.11 1593.93 1335.13 1592.91 1336.14 1591.9L1337.16 1590.82C1340.21 1588.78 1343.26 1586.74 1346.31 1583.69 1347.33 1582.67 1348.34 1581.66 1350.38 1580.64 1351.39 1579.62 1353.43 1577.58 1354.44 1576.57 1355.46 1575.55 1357.49 1574.53 1358.51 1573.51 1359.53 1571.48 1361.56 1570.46 1362.58 1568.42L1363.59 1568.42C1336.14 1564.35 1306.6 1561.3 1277.11 1559.26 1264.91 1571.48 1253.73 1582.67 1244.58 1592.91 1222.15 1618.36 1205.88 1638.78 1195.71 1652.01 1195.71 1653.03 1194.69 1653.03 1194.69 1654.05 1192.66 1656.08 1190.63 1659.14 1188.59 1661.17L1188.59 1662.19 1189.61 1662.19C1190.63 1662.19 1190.63 1662.19 1191.64 1663.21 1194.69 1664.23 1198.76 1665.25 1201.81 1666.26Z" fill="#FFFFFF" fill-rule="evenodd"/><path d="M1431.41 1469.25 1431.41 1469.25C1434.49 1461.9 1437.57 1453.57 1439.63 1445.25 1426.28 1451.49 1413.95 1457.73 1401.63 1464.04 1411.9 1466.12 1422.17 1467.16 1431.41 1469.25Z" fill="#FFFFFF" fill-rule="evenodd"/><path d="M1239.56 1187.2C1236.57 1187.2 1234.59 1190.2 1234.59 1193.2 1234.59 1196.2 1236.57 1199.2 1239.56 1199.2 1242.6 1199.2 1245.59 1196.2 1245.59 1193.2 1245.59 1190.2 1243.6 1188.2 1239.56 1187.2Z" fill="#FFFFFF" fill-rule="evenodd"/><path d="M1225.64 1239.21C1225.64 1236.21 1222.39 1234.21 1219.14 1234.21 1215.89 1234.21 1212.64 1236.21 1212.64 1239.21 1212.64 1242.21 1215.89 1245.21 1219.14 1245.21 1222.39 1245.21 1225.64 1243.21 1225.64 1239.21Z" fill="#FFFFFF" fill-rule="evenodd"/><path d="M1184.58 1308.24C1180.58 1308.24 1178.58 1310.42 1178.58 1313.69 1178.58 1316.96 1180.58 1320.24 1183.58 1320.24 1187.58 1320.24 1189.58 1316.96 1189.58 1313.69 1189.58 1310.42 1187.58 1308.24 1184.58 1308.24Z" fill="#FFFFFF" fill-rule="evenodd"/><path d="M1175.61 1235.21C1172.63 1235.21 1170.58 1238.21 1170.58 1241.21 1170.58 1244.21 1172.63 1246.21 1175.61 1247.21 1178.6 1247.21 1181.58 1244.21 1181.58 1241.21 1181.58 1238.21 1178.6 1235.21 1175.61 1235.21Z" fill="#FFFFFF" fill-rule="evenodd"/><path d="M1125.58 1313.78C1125.58 1317.06 1127.58 1319.24 1130.58 1319.24 1134.58 1319.24 1136.58 1317.06 1136.58 1313.78 1136.58 1310.51 1134.58 1307.24 1131.58 1307.24 1127.58 1307.24 1125.58 1310.51 1125.58 1313.78Z" fill="#FFFFFF" fill-rule="evenodd"/><path d="M1248.59 1362.7C1248.59 1365.97 1251.59 1369.24 1254.59 1369.24 1257.59 1369.24 1260.59 1365.97 1260.59 1362.7 1260.59 1359.43 1257.59 1357.24 1254.59 1357.24 1251.59 1357.24 1248.59 1359.43 1248.59 1362.7Z" fill="#FFFFFF" fill-rule="evenodd"/><path d="M1180.76 1360.7C1179.78 1363.97 1182.73 1367.24 1185.68 1367.24 1188.62 1367.24 1191.57 1365.06 1191.57 1360.7 1191.57 1357.43 1188.62 1355.24 1185.68 1355.24 1182.73 1355.24 1180.76 1357.43 1180.76 1360.7Z" fill="#FFFFFF" fill-rule="evenodd"/><path d="M1111.63 1363.67C1111.63 1366.89 1113.81 1369.03 1117.08 1369.03 1120.35 1370.1 1123.63 1366.89 1123.63 1363.67 1123.63 1360.46 1120.35 1357.24 1117.08 1357.24 1113.81 1357.24 1111.63 1360.46 1111.63 1363.67Z" fill="#FFFFFF" fill-rule="evenodd"/><path d="M1269.68 1225.21C1269.68 1223.21 1268.53 1221.21 1266.25 1221.21 1263.96 1221.21 1261.68 1223.21 1261.68 1224.21 1261.68 1226.21 1263.96 1228.21 1266.25 1228.21 1267.39 1228.21 1269.68 1226.21 1269.68 1225.21Z" fill="#FFFFFF" fill-rule="evenodd"/><path d="M1213.67 1345.22C1213.67 1347.22 1215.96 1348.22 1217.1 1348.22 1219.38 1348.22 1221.67 1347.22 1221.67 1345.22 1221.67 1343.22 1219.38 1342.22 1218.24 1341.22 1215.96 1341.22 1213.67 1343.22 1213.67 1345.22Z" fill="#FFFFFF" fill-rule="evenodd"/><path d="M1210.59 1282.21C1208.59 1282.21 1206.59 1283.21 1206.59 1285.22 1206.59 1287.21 1208.59 1288.21 1210.59 1288.21 1211.59 1288.21 1213.59 1287.21 1213.59 1285.22 1213.59 1283.21 1212.59 1282.21 1210.59 1282.21Z" fill="#FFFFFF" fill-rule="evenodd"/><path d="M1143.58 1341.22C1141.58 1341.22 1139.58 1342.22 1139.58 1344.22 1139.58 1346.22 1141.58 1347.22 1143.58 1348.22 1144.58 1348.22 1146.58 1346.22 1146.58 1344.22 1146.58 1342.22 1145.58 1341.22 1143.58 1341.22Z" fill="#FFFFFF" fill-rule="evenodd"/><path d="M1149.58 1275.21C1151.58 1275.21 1153.58 1274.21 1153.58 1272.21 1153.58 1270.21 1151.58 1268.21 1150.58 1268.21 1148.58 1268.21 1146.58 1270.21 1146.58 1272.21 1146.58 1273.21 1148.58 1275.21 1149.58 1275.21Z" fill="#FFFFFF" fill-rule="evenodd"/><path d="M1207.59 1200.2C1205.58 1200.2 1203.58 1201.19 1203.58 1203.18 1203.58 1205.16 1205.58 1207.2 1207.59 1207.2 1209.59 1207.2 1210.59 1205.16 1210.59 1203.18 1210.59 1202.19 1209.59 1200.2 1207.59 1200.2Z" fill="#FFFFFF" fill-rule="evenodd"/><path d="M1248.59 1265.2C1246.59 1265.2 1244.59 1266.16 1244.59 1268.08 1244.59 1269.99 1246.59 1270.95 1248.59 1270.95 1249.59 1271.91 1251.59 1269.99 1251.59 1268.08 1251.59 1266.16 1250.59 1265.2 1248.59 1265.2Z" fill="#FFFFFF" fill-rule="evenodd"/><path d="M1250.59 1318.22C1248.59 1318.22 1246.59 1319.22 1246.59 1321.22 1246.59 1323.22 1248.59 1324.22 1249.59 1324.22 1251.59 1324.22 1253.59 1323.22 1253.59 1321.22 1253.59 1319.22 1251.59 1318.22 1250.59 1318.22Z" fill="#FFFFFF" fill-rule="evenodd"/><path d="M877.728 1040.1C878.747 1043.16 879.766 1047.24 880.785 1051.32 882.823 1059.48 884.861 1066.61 885.88 1074.77 889.956 1091.15 891.993 1107.47 895.05 1123.85 899.125 1156.48 903.265 1189.18 906.322 1221.88 909.378 1254.58 912.435 1288.23 915.492 1320.93L919.568 1369.94 921.606 1395.5 922.625 1407.74C922.625 1411.82 923.644 1415.9 923.644 1419.97 925.682 1437.38 929.758 1454.71 934.852 1471.09 935.871 1473.13 936.89 1475.17 936.89 1476.19 943.003 1475.17 948.098 1474.15 954.212 1473.13 947.079 1454.71 943.003 1436.36 939.946 1417.93 939.946 1413.86 938.927 1409.78 938.927 1405.7L937.909 1393.46 935.871 1368.92 931.796 1318.89C929.758 1286.19 925.682 1253.56 922.625 1219.84 919.568 1187.14 915.492 1154.44 910.397 1120.73 908.359 1104.41 905.303 1088.09 902.246 1071.71 900.144 1063.55 898.106 1055.4 896.069 1047.24 895.05 1043.16 894.031 1039.08 891.993 1034.94 891.993 1033.92 891.993 1032.9 890.974 1031.88 909.378 1027.8 927.72 1023.72 946.06 1019.64 952.174 1018.62 958.288 1016.58 965.42 1014.54 988.919 1009.44 1013.37 1003.32 1036.81 996.184 1040.95 995.164 1044.01 994.145 1048.08 993.125 1075.59 984.903 1102.08 975.724 1129.66 965.526 1135.77 963.486 1141.89 960.427 1149.02 958.387 1155.13 955.328 1162.27 952.269 1169.4 949.145 1180.67 944.047 1190.86 938.948 1201.05 932.829 1212.26 938.948 1222.45 944.047 1233.65 949.145 1239.77 952.269 1246.96 955.328 1254.1 958.387 1260.21 960.427 1267.34 963.486 1273.46 965.526 1299.95 975.724 1327.52 984.903 1355.03 993.125 1358.09 994.145 1362.17 995.164 1365.22 996.184 1389.74 1002.3 1413.18 1009.44 1437.63 1014.54 1443.81 1016.58 1449.92 1017.6 1457.06 1019.64 1474.38 1023.72 1492.72 1027.8 1511.12 1031.88 1511.12 1032.9 1511.12 1033.92 1510.04 1034.94 1509.02 1039.08 1508 1043.16 1506.98 1047.24 1503.93 1055.4 1502.91 1063.55 1500.87 1071.71 1497.81 1088.09 1494.76 1104.41 1492.72 1120.73 1487.62 1154.44 1483.55 1187.14 1480.49 1219.84 1476.42 1253.56 1473.36 1286.19 1471.32 1318.89L1466.23 1368.92 1465.21 1393.46 1464.19 1405.7C1463.17 1409.78 1463.17 1413.86 1462.15 1417.93 1460.11 1436.36 1456.04 1454.71 1448.9 1473.13 1455.02 1474.15 1460.11 1475.17 1465.21 1476.19 1466.23 1475.17 1467.24 1473.13 1467.24 1471.09 1473.36 1454.71 1476.42 1437.38 1479.47 1419.97 1479.47 1417.93 1479.47 1415.9 1479.47 1413.86 1480.49 1411.82 1480.49 1409.78 1480.49 1407.74L1481.51 1395.5 1483.55 1369.94 1487.62 1320.93C1489.66 1287.21 1492.72 1254.58 1495.78 1221.88 1499.85 1189.18 1502.91 1156.48 1508 1123.85 1510.04 1107.47 1513.16 1091.15 1516.22 1074.77 1518.26 1066.61 1520.29 1059.48 1522.33 1051.32 1524.37 1043.16 1526.41 1036.02 1529.46 1029.84L1534.56 1020.66 1524.37 1017.6C1502.91 1013.52 1480.49 1007.4 1459.09 1002.3 1452.98 1000.26 1447.89 999.243 1441.71 997.204 1417.25 990.001 1391.78 982.863 1367.26 974.704 1365.22 974.704 1363.19 973.685 1361.15 972.665 1334.66 964.506 1308.16 955.328 1281.61 944.047 1272.44 940.987 1263.27 936.908 1254.1 931.809 1251.04 930.789 1246.96 928.75 1243.91 926.71 1231.62 921.611 1219.39 914.473 1208.18 907.27L1202.07 903.191 1194.93 907.27C1183.73 914.473 1171.44 921.611 1159.21 926.71 1155.13 928.75 1152.08 930.789 1148 932.829 1138.83 936.908 1129.66 940.987 1120.49 944.047 1094.95 955.328 1068.46 964.506 1041.97 972.665 1039.93 973.685 1036.81 974.704 1034.77 974.704 1010.32 982.863 985.862 990.001 960.326 997.204 955.231 999.243 949.117 1000.26 943.003 1002.3 921.606 1007.4 900.144 1012.5 878.747 1017.6L868.557 1020.66 872.633 1029.84C874.671 1032.9 875.69 1036.02 877.728 1040.1Z" fill="#FFFFFF" fill-rule="evenodd"/><path d="M1381.16 1575.34C1377.08 1579.42 1372.94 1582.49 1369.89 1586.57 1350.53 1604 1330.15 1619.32 1308.75 1633.62 1302.57 1636.75 1296.46 1640.84 1290.34 1644.92 1276.08 1653.1 1260.79 1660.25 1246.52 1667.4 1243.47 1669.44 1239.33 1670.46 1236.27 1672.5 1225.06 1677.67 1212.83 1681.76 1200.61 1686.87 1188.38 1681.76 1177.17 1677.67 1164.88 1671.48 1161.82 1670.46 1158.76 1669.44 1155.71 1667.4 1140.42 1660.25 1126.16 1653.1 1111.89 1644.92 1105.78 1640.84 1098.58 1636.75 1092.47 1632.6 1071.07 1619.32 1050.69 1604 1032.28 1586.57 1028.2 1582.49 1024.13 1578.4 1021.07 1575.34L1021.07 1575.34C1019.03 1573.3 1018.02 1572.27 1017 1571.25 1009.86 1572.27 1002.73 1573.3 996.616 1574.32 1004.77 1582.49 1012.92 1591.75 1021.07 1598.9 1022.09 1599.92 1023.11 1600.94 1024.13 1601.96 1046.61 1622.39 1070.05 1638.8 1094.5 1654.12 1097.56 1656.16 1100.62 1658.2 1103.67 1660.25 1118 1668.42 1133.29 1676.59 1148.57 1683.8 1153.67 1685.85 1159.78 1688.91 1165.9 1690.95 1167.93 1691.98 1169.97 1693 1172.07 1694.02 1176.15 1696.06 1180.23 1697.08 1184.3 1699.12L1189.4 1701.17 1193.47 1702.19 1196.53 1703.21 1200.61 1705.25 1205.7 1703.21 1208.76 1702.19 1211.82 1701.17 1217.93 1699.12C1222.01 1697.08 1226.08 1696.06 1230.16 1694.02 1232.2 1693 1234.23 1691.98 1236.27 1691.98 1242.45 1688.91 1247.54 1686.87 1253.66 1683.8 1268.94 1676.59 1284.23 1668.42 1298.49 1660.25 1301.55 1658.2 1303.59 1656.16 1306.65 1655.14 1331.17 1639.82 1355.62 1622.39 1377.08 1602.98 1378.1 1601.96 1380.14 1599.92 1381.16 1598.9 1389.31 1591.75 1397.46 1583.51 1405.62 1574.32 1398.48 1573.3 1392.37 1572.27 1385.24 1571.25 1384.22 1572.27 1382.18 1574.32 1381.16 1575.34Z" fill="#FFFFFF" fill-rule="evenodd"/><path d="M1472.84 1516.52C1470.8 1515.49 1467.74 1513.45 1463.67 1512.42 1457.55 1511.4 1455.51 1513.45 1454.49 1516.52 1453.48 1519.58 1456.53 1522.65 1461.63 1525.72 1469.78 1530.83 1472.84 1535.95 1470.8 1543.11 1469.78 1550.33 1462.65 1556.47 1450.42 1553.4 1445.32 1552.38 1440.16 1550.33 1438.13 1548.28L1441.18 1541.06C1443.28 1543.11 1447.36 1545.15 1452.46 1546.17 1457.55 1547.2 1461.63 1545.15 1462.65 1542.08 1462.65 1537.99 1460.61 1534.92 1455.51 1531.86 1449.4 1528.79 1445.32 1523.67 1445.32 1518.56 1445.32 1517.54 1445.32 1516.52 1445.32 1515.49 1446.34 1511.4 1448.38 1508.33 1451.44 1506.29 1455.51 1504.18 1459.59 1504.18 1465.7 1505.27 1470.8 1506.29 1473.86 1508.33 1475.89 1509.36ZM1433.03 1526.74 1421.82 1524.7 1415.71 1523.67 1413.67 1536.97 1412.65 1536.97 1412.65 1537.99 1430.99 1541.06 1433.03 1542.08 1432.01 1549.31 1425.9 1548.28 1407.56 1545.15 1402.46 1544.13 1404.5 1536.97 1407.56 1514.47 1411.63 1496 1418.76 1497.02 1428.95 1498.04 1436.09 1500.09 1439.15 1500.09 1438.13 1507.31 1433.03 1507.31 1424.88 1505.27 1418.76 1504.18 1416.73 1516.52 1417.75 1517.54 1425.9 1518.56 1435.07 1519.58ZM1380.04 1533.9C1383.1 1533.9 1385.14 1533.9 1387.17 1533.9L1388.19 1521.63 1380.04 1520.61 1381.06 1513.45 1398.38 1515.49 1395.33 1531.86 1394.31 1540.04C1393.29 1541.06 1390.23 1541.06 1388.19 1541.06 1385.14 1541.06 1382.08 1541.06 1379.02 1541.06 1370.81 1540.04 1364.69 1536.97 1360.62 1531.86 1356.54 1527.77 1355.52 1520.61 1356.54 1513.45 1358.58 1498.04 1370.81 1489.86 1386.16 1491.91 1392.27 1491.91 1397.36 1493.95 1399.4 1494.97L1396.35 1502.13C1393.29 1501.11 1390.23 1499.06 1385.14 1499.06 1374.88 1497.02 1366.73 1502.13 1365.71 1514.47 1363.67 1524.7 1369.79 1532.88 1380.04 1533.9ZM1351.45 1494.97 1331.06 1492.93 1330.04 1506.29 1336.16 1506.29 1348.39 1507.31 1348.39 1514.47 1330.04 1513.45 1328.01 1527.77 1348.39 1529.81 1348.39 1536.97 1318.84 1533.9 1319.85 1519.58 1322.91 1484.75 1351.45 1487.81ZM1300.43 1504.18C1308.65 1507.31 1312.72 1512.42 1311.7 1519.58 1311.7 1526.74 1305.52 1533.9 1292.28 1532.88 1287.18 1532.88 1282.09 1530.83 1279.03 1528.79L1282.09 1521.63C1285.14 1523.67 1289.22 1524.7 1293.3 1525.72 1299.41 1525.72 1302.47 1523.67 1302.47 1519.58 1303.49 1515.49 1300.43 1513.45 1294.32 1510.38 1287.18 1507.31 1282.09 1502.13 1282.09 1494.97 1283.11 1487.81 1290.24 1481.68 1300.43 1482.7 1305.52 1482.7 1309.66 1484.75 1311.7 1485.77L1309.66 1492.93C1307.63 1491.91 1304.51 1489.86 1300.43 1489.86 1294.32 1489.86 1291.26 1491.91 1291.26 1494.97 1291.26 1499.06 1294.32 1501.11 1300.43 1504.18ZM1244.38 1501.11 1257.63 1501.11 1257.63 1508.33 1239.22 1508.33 1238.2 1522.65 1259.67 1522.65 1258.65 1529.81 1229.03 1529.81 1230.05 1509.36 1231.07 1480.65 1259.67 1480.65 1259.67 1488.84 1239.22 1487.81 1239.22 1500.09ZM1210.69 1528.79 1207.63 1524.7 1197.44 1507.31C1194.39 1502.13 1191.33 1496 1188.27 1490.88L1188.27 1490.88C1189.29 1497.02 1189.29 1503.16 1189.29 1511.4L1189.29 1528.79 1181.14 1528.79 1181.14 1480.65 1191.33 1479.63 1203.56 1501.11C1206.61 1506.29 1209.67 1512.42 1211.71 1517.54L1211.71 1517.54C1211.71 1511.4 1211.71 1504.18 1211.71 1497.02L1211.71 1479.63 1219.86 1479.63 1219.86 1516.52 1219.86 1528.79ZM1161.71 1529.81 1160.69 1480.65 1169.87 1480.65 1170.89 1529.81ZM1144.39 1530.83 1142.35 1510.38C1142.35 1504.18 1141.33 1496 1140.31 1489.86L1140.31 1489.86C1139.29 1496 1137.26 1502.13 1136.24 1509.36L1130.12 1530.83 1122.99 1530.83 1114.84 1510.38C1113.82 1506.29 1112.8 1502.13 1111.78 1498.04 1110.76 1496 1109.74 1493.95 1109.74 1491.91L1108.72 1491.91C1109.74 1493.95 1109.74 1497.02 1109.74 1500.09 1109.74 1504.18 1109.74 1508.33 1109.74 1512.42L1109.74 1531.86 1101.53 1532.88 1101.53 1504.18 1101.53 1483.72 1113.82 1482.7 1117.89 1494.97 1120.95 1502.13C1122.99 1508.33 1125.03 1513.45 1126.05 1519.58L1126.05 1519.58C1127.07 1513.45 1129.1 1507.31 1130.12 1502.13L1135.22 1484.75 1136.24 1481.68 1141.33 1481.68 1147.45 1480.65 1153.56 1529.81ZM1065.86 1535.95 1064.84 1529.81 1060.77 1486.79 1089.3 1484.75 1090.32 1491.91 1070.96 1493.95 1071.98 1506.29 1090.32 1504.18 1090.32 1511.4 1090.32 1512.42 1071.98 1513.45 1072.99 1523.67 1074.01 1527.77 1094.39 1525.72 1095.41 1533.9ZM1039.37 1540.04C1034.21 1541.06 1029.11 1540.04 1026.05 1539.02L1027.07 1530.83C1030.13 1531.86 1035.23 1532.88 1039.37 1532.88 1044.46 1531.86 1047.52 1528.79 1047.52 1524.7 1046.5 1521.63 1044.46 1519.58 1037.33 1517.54 1029.11 1515.49 1024.02 1512.42 1023 1505.27 1021.98 1497.02 1028.09 1490.88 1038.35 1488.84 1043.44 1488.84 1047.52 1488.84 1050.57 1489.86L1048.54 1497.02C1047.52 1497.02 1043.44 1496 1039.37 1496 1033.19 1497.02 1031.15 1500.09 1031.15 1503.16 1032.17 1507.31 1035.23 1508.33 1042.42 1510.38 1050.57 1512.42 1055.67 1516.52 1056.69 1522.65 1056.69 1530.83 1052.61 1539.02 1039.37 1540.04ZM1003.64 1544.13 997.522 1545.15 990.389 1536.97C988.351 1532.88 986.313 1530.83 984.275 1528.79L984.275 1528.79 983.256 1529.81 983.256 1529.81C983.256 1532.88 982.237 1534.92 981.218 1537.99L978.161 1549.31 976.122 1549.31 967.907 1550.33 971.027 1542.08 978.161 1523.67 959.754 1502.13 965.868 1501.11 970.008 1500.09 977.142 1509.36C979.18 1512.42 981.218 1514.47 982.237 1516.52L983.256 1516.52 983.256 1515.49 983.256 1515.49C983.256 1513.45 984.275 1510.38 985.293 1508.33L988.351 1497.02 998.541 1494.97 988.351 1521.63 1007.71 1543.11ZM935.297 1557.49 925.107 1509.36 948.545 1504.18 952.621 1503.16 954.659 1510.38 952.621 1511.4 935.297 1515.49 938.355 1527.77 955.678 1523.67 957.716 1530.83 939.374 1534.92 942.431 1548.28 962.811 1544.13 964.849 1551.35ZM1501.37 1577.94 1529.97 1508.33C1532 1502.13 1523.85 1498.04 1523.85 1498.04 1504.43 1491.91 1484.05 1486.79 1462.65 1481.68 1457.55 1480.65 1452.46 1478.61 1446.34 1477.59 1444.3 1477.59 1441.18 1476.56 1439.15 1476.56L1439.15 1476.56C1436.09 1475.54 1432.01 1474.52 1428.95 1474.52L1428.95 1474.52C1416.73 1472.47 1405.52 1470.43 1392.27 1468.38 1368.77 1464.29 1344.31 1461.16 1319.85 1459.11L1319.85 1459.11C1281.07 1456.05 1241.33 1454 1200.5 1454L1200.5 1454C1150.5 1454 1102.55 1457.07 1056.69 1462.18L1056.69 1462.18C1028.09 1465.31 999.56 1469.41 973.065 1474.52L973.065 1474.52C970.008 1474.52 965.868 1475.54 962.811 1476.56 960.773 1476.56 957.716 1477.59 955.678 1477.59 949.564 1478.61 944.469 1479.63 938.355 1481.68 916.954 1486.79 896.511 1491.91 878.168 1498.04 878.168 1498.04 868.997 1502.13 872.054 1508.33L871.034 1508.33 900.587 1577.94C858.806 1590.22 823.076 1606.64 819 1616.87L855.749 1707C860.844 1694.73 900.587 1677.34 945.487 1663.98 960.773 1659.89 963.83 1651.71 960.773 1643.53 953.64 1627.1 925.107 1608.69 914.916 1602.55 913.898 1602.55 912.878 1601.53 911.86 1600.51L910.84 1600.51 910.84 1599.49 909.822 1599.49 909.822 1598.46 908.803 1597.44 908.803 1597.44 907.784 1596.42 907.784 1595.39C907.784 1590.22 914.916 1587.15 914.916 1587.15 915.936 1587.15 916.954 1586.12 918.993 1586.12 920.012 1586.12 921.031 1585.1 922.05 1585.1L924.088 1584.08 926.126 1584.08C929.183 1583.06 931.221 1582.03 934.278 1582.03 952.621 1576.92 972.046 1572.83 991.408 1568.74 998.541 1567.72 1004.66 1566.69 1011.79 1564.65 1014.85 1564.65 1017.9 1564.65 1020.96 1563.62 1025.04 1563.62 1029.11 1562.6 1033.19 1561.58L1033.19 1561.58C1076.05 1555.44 1122.99 1552.38 1171.97 1551.35L1171.97 1551.35C1181.14 1550.33 1191.33 1550.33 1200.5 1550.33 1228.01 1550.33 1255.59 1551.35 1282.09 1553.4 1312.72 1555.44 1341.25 1558.51 1368.77 1561.58 1372.84 1562.6 1376.98 1563.62 1381.06 1563.62 1384.12 1564.65 1387.17 1564.65 1390.23 1565.67 1396.35 1566.69 1403.48 1567.72 1409.59 1568.74 1429.97 1572.83 1449.4 1576.92 1466.72 1582.03 1469.78 1582.03 1471.82 1583.06 1474.88 1584.08 1475.89 1584.08 1475.89 1584.08 1476.91 1584.08 1477.93 1585.1 1477.93 1585.1 1478.95 1585.1 1479.97 1585.1 1480.99 1586.12 1483.03 1586.12 1484.05 1586.12 1485.07 1587.15 1486.08 1587.15 1486.08 1587.15 1493.22 1590.22 1493.22 1595.39L1493.22 1596.42 1493.22 1597.44 1493.22 1597.44 1492.2 1598.46 1491.18 1599.49 1491.18 1599.49 1490.16 1600.51 1490.16 1600.51C1489.14 1601.53 1488.12 1602.55 1486.08 1602.55 1476.91 1608.69 1447.36 1627.1 1441.18 1643.53 1437.11 1651.71 1440.16 1659.89 1455.51 1663.98 1500.35 1677.34 1541.18 1694.73 1545.25 1707L1582 1616.87C1577.86 1606.64 1542.19 1590.22 1501.37 1577.94Z" fill="#FFFFFF" fill-rule="evenodd"/><path d="M1146.83 865.171 1255.62 865.171C1305.38 821.212 1246.48 768.143 1246.48 768.143 1241.4 792.67 1215.95 797.767 1215.95 797.767 1238.29 777.317 1233.21 720.171 1233.21 720.171 1233.21 720.171 1233.21 733.422 1171.2 776.298 1102.09 825.353 1146.83 865.171 1146.83 865.171Z" fill="#FFFFFF" fill-rule="evenodd"/><path d="M1471.42 925.178C1522.42 889.375 1473.46 835.192 1473.46 835.192 1466.33 856.636 1441.81 859.698 1441.81 859.698 1465.31 842.34 1466.33 789.178 1466.33 789.178 1466.33 789.178 1464.29 801.431 1403.1 835.192 1334.78 873.037 1371.46 913.945 1371.46 913.945Z" fill="#FFFFFF" fill-rule="evenodd"/><path d="M931.712 925.178 1031.25 913.955C1071.92 867.982 1012.98 826.09 1012.98 826.09 1009.94 848.535 987.605 856.696 987.605 856.696 1005.88 834.252 995.726 783.178 995.726 783.178 995.726 783.178 996.741 794.4 943.893 841.393 885.97 893.487 931.712 925.178 931.712 925.178Z" fill="#FFFFFF" fill-rule="evenodd"/><text fill="#FFFFFF" font-family="Myriad Pro,Myriad Pro_MSFontService,sans-serif" font-weight="700" font-size="275" transform="matrix(1 0 0 1 1700.54 1167)">Engenharia da </text><text fill="#FFFFFF" font-family="Myriad Pro,Myriad Pro_MSFontService,sans-serif" font-weight="700" font-size="275" transform="matrix(1 0 0 1 1700.54 1497)">Computação</text></g></svg>